# xmcd CD database file
#
# Track frame offsets:
#	150
#	21551
#	40974
#	62054
#	78942
#	94985
#	117474
#	135344
#	150896
#	171633
#
# Disc length: 2527 seconds
#
# Revision: 0
# Processed by: cddbd v1.5.2PL0 Copyright (c) Steve Scherf et al.
# Submitted via: CDex 1.51
#
DISCID=8109dd0a
DTITLE=Luke Roberts - Sunlit cross
DYEAR=2016
DGENRE=Country
TTITLE0=Song to remember
TTITLE1=American music
TTITLE2=Run
TTITLE3=Virginia girl
TTITLE4=Nursery rhyme
TTITLE5=Silver chain
TTITLE6=Untitled blues
TTITLE7=Missing blues
TTITLE8=Many miles
TTITLE9=Big Chief Cole
EXTD=YEAR: 2016
EXTT0=
EXTT1=
EXTT2=
EXTT3=
EXTT4=
EXTT5=
EXTT6=
EXTT7=
EXTT8=
EXTT9=
PLAYORDER=
